Coordinates
version=1
nRows=14
nColumns=63
inDegrees=yes

Units are S.I. units (second, meters, Newtons, ...)
If the header above contains a line with 'inDegrees', this indicates whether rotational values are in degrees (yes) or radians (no).

endheader
time	pelvis_tilt	pelvis_list	pelvis_rotation	pelvis_tx	pelvis_ty	pelvis_tz	hip_flexion_r	hip_adduction_r	hip_rotation_r	knee_angle_r	knee_angle_r_beta	ankle_angle_r	subtalar_angle_r	mtp_angle_r	hip_flexion_l	hip_adduction_l	hip_rotation_l	knee_angle_l	knee_angle_l_beta	ankle_angle_l	subtalar_angle_l	mtp_angle_l	L5_S1_Flex_Ext	L5_S1_Lat_Bending	L5_S1_axial_rotation	L4_L5_Flex_Ext	L4_L5_Lat_Bending	L4_L5_axial_rotation	L3_L4_Flex_Ext	L3_L4_Lat_Bending	L3_L4_axial_rotation	L2_L3_Flex_Ext	L2_L3_Lat_Bending	L2_L3_axial_rotation	L1_L2_Flex_Ext	L1_L2_Lat_Bending	L1_L2_axial_rotation	L1_T12_Flex_Ext	L1_T12_Lat_Bending	L1_T12_axial_rotation	Abs_r3	Abs_r2	Abs_r1	Abs_t1	Abs_t2	neck_flexion	neck_bending	neck_rotation	arm_flex_r	arm_add_r	arm_rot_r	elbow_flex_r	pro_sup_r	wrist_flex_r	wrist_dev_r	arm_flex_l	arm_add_l	arm_rot_l	elbow_flex_l	pro_sup_l	wrist_flex_l	wrist_dev_l
1.796610	9.774124	6.471718	93.079755	0.243153	0.482763	0.923807	-4.695215	8.020974	-6.285205	10.367325	0.180944	21.776806	7.116517	0.000000	-7.558655	-7.955107	11.250587	2.890393	0.050447	26.014862	-12.784248	0.000000	-0.544149	1.051441	2.888216	-1.010540	1.398417	3.068729	-0.893983	2.556474	3.068729	-0.621908	2.556474	2.527189	-0.505297	2.144098	2.346675	-0.310927	1.628682	2.166162	-3.886805	11.894111	16.063389	0.000000	0.000000	0.249938	18.286974	-39.239779	51.116035	-23.578698	73.094928	123.129635	48.197732	-0.968958	21.464214	53.403835	52.224985	245.774178	0.055426	1.090332	-69.888844	-24.582814
1.813559	10.142010	6.482792	93.343468	0.240980	0.482937	0.923783	-4.405108	8.333150	-6.288580	10.755302	0.187715	21.786252	6.642210	0.000000	-7.462223	-8.259565	11.589541	2.948337	0.051458	26.039365	-12.885308	0.000000	-0.555588	1.096595	2.839518	-1.031783	1.458472	3.016988	-0.912776	2.666262	3.016988	-0.634982	2.666262	2.484578	-0.515919	2.236177	2.307108	-0.317463	1.698626	2.129638	-3.968512	12.404906	15.792547	0.000000	0.000000	0.889039	18.677238	-39.657735	50.320729	-23.837544	70.971405	125.740236	53.551798	-0.705568	24.129873	53.592042	53.134416	244.711979	0.054423	1.011180	-69.892033	-24.583894
1.830508	10.497855	6.473917	93.566966	0.238860	0.483049	0.923766	-4.089981	8.627435	-6.270249	11.131272	0.194277	21.837064	6.225923	0.000000	-7.348731	-8.545962	11.862069	2.994367	0.052262	26.089470	-12.963569	0.000000	-0.563957	1.141152	2.815124	-1.047325	1.517732	2.991069	-0.926525	2.774596	2.991069	-0.644546	2.774596	2.463233	-0.523690	2.327037	2.287288	-0.322245	1.767644	2.111343	-4.028289	12.908937	15.656873	0.000000	0.000000	1.582098	19.022560	-40.129268	49.126302	-23.906218	68.662531	128.466669	57.539017	-0.371973	26.073197	53.765312	54.124101	243.411656	0.053328	0.930023	-69.895585	-24.584837
1.847458	10.842589	6.439706	93.737094	0.236827	0.483121	0.923702	-3.756974	8.902536	-6.239126	11.479426	0.200354	21.925274	5.897306	0.000000	-7.221794	-8.813969	12.035350	3.021705	0.052739	26.165357	-13.003673	0.000000	-0.568162	1.185016	2.816210	-1.055134	1.576071	2.992223	-0.933434	2.881247	2.992223	-0.649353	2.881247	2.464184	-0.527596	2.416484	2.288171	-0.324648	1.835589	2.112158	-4.058327	13.405135	15.662915	0.000000	0.000000	2.311164	19.311428	-40.665858	47.610177	-23.742087	66.279148	131.204189	60.754121	0.007345	27.265097	53.892624	55.205157	242.048768	0.052159	0.852337	-69.899425	-24.585921
1.864407	11.176794	6.370123	93.862287	0.234873	0.483161	0.923531	-3.409161	9.158161	-6.223605	11.785778	0.205701	22.043862	5.688652	0.000000	-7.076587	-9.064537	12.117756	3.025323	0.052802	26.263382	-13.012358	0.000000	-0.565552	1.228794	2.835994	-1.050287	1.634296	3.013244	-0.929146	2.987690	3.013244	-0.646370	2.987690	2.481495	-0.525172	2.505757	2.304245	-0.323157	1.903402	2.126995	-4.039683	13.900365	15.772948	0.000000	0.000000	3.028651	19.516074	-41.239641	45.858284	-23.360126	63.853863	133.841434	63.594458	0.211619	27.789687	53.949347	56.347987	240.697969	0.051023	0.830915	-69.903347	-24.588923
1.881356	11.476272	6.277222	93.940780	0.233094	0.483182	0.923230	-3.069498	9.375930	-6.217268	12.043676	0.210202	22.192345	5.585112	0.000000	-6.933522	-9.279297	12.092531	2.998462	0.052333	26.385829	-12.956475	0.000000	-0.558245	1.269466	2.875946	-1.036717	1.688390	3.055692	-0.917141	3.086579	3.055692	-0.638019	3.086579	2.516453	-0.518387	2.588695	2.336706	-0.318981	1.966403	2.156959	-3.987490	14.360452	15.995147	0.000000	0.000000	3.718578	19.622356	-41.861070	43.911220	-22.807279	61.305470	136.276793	66.114600	0.370328	27.753104	53.964447	57.518678	239.733683	0.049801	0.786906	-69.907240	-24.590854
1.898305	11.736592	6.162515	93.994392	0.231522	0.483196	0.922813	-2.742998	9.562265	-6.181554	12.250362	0.213809	22.338075	5.495059	0.000000	-6.786406	-9.460754	11.951170	2.949057	0.051471	26.537579	-12.787725	0.000000	-0.545901	1.306637	2.925037	-1.013792	1.737827	3.107852	-0.896860	3.176958	3.107852	-0.623910	3.176958	2.559407	-0.506923	2.664495	2.376592	-0.311928	2.023981	2.193778	-3.899314	14.780941	16.268177	0.000000	0.000000	4.339006	19.630135	-42.489128	41.797591	-22.089629	58.532967	138.457214	69.118440	0.537740	27.519475	53.944452	58.636898	239.135281	0.048618	0.757346	-69.910879	-24.593747
1.915254	11.949664	6.031542	94.023712	0.230215	0.483218	0.922305	-2.437511	9.711850	-6.126457	12.409773	0.216591	22.467351	5.417380	0.000000	-6.642184	-9.603961	11.716433	2.877077	0.050214	26.700620	-12.532209	0.000000	-0.529192	1.339033	2.978224	-0.982762	1.780914	3.164363	-0.869409	3.255726	3.164363	-0.604813	3.255726	2.605946	-0.491408	2.730557	2.419807	-0.302380	2.074163	2.233668	-3.779965	15.147412	16.563986	0.000000	0.000000	4.870880	19.578365	-43.093514	39.578641	-21.264402	55.630573	140.373780	72.962194	0.691333	27.301387	53.897730	59.633325	238.935561	0.047511	0.740805	-69.914156	-24.597933
1.932203	12.115797	5.904741	94.025099	0.229208	0.483285	0.921742	-2.174088	9.826366	-6.061260	12.529654	0.218684	22.558696	5.348998	0.000000	-6.522402	-9.711085	11.407043	2.787308	0.048648	26.857612	-12.228594	0.000000	-0.511248	1.367105	3.036246	-0.949438	1.818249	3.226011	-0.839929	3.323978	3.226011	-0.584305	3.323978	2.656715	-0.474745	2.787800	2.466950	-0.292127	2.117645	2.277185	-3.651791	15.464961	16.886690	0.000000	0.000000	5.333646	19.506762	-43.648673	37.317916	-20.402530	52.751213	142.004509	77.586111	0.992843	27.141863	53.816304	60.467088	239.112967	0.046528	0.736586	-69.916971	-24.603816
1.949153	12.225729	5.793268	94.017988	0.228517	0.483432	0.921152	-1.966079	9.897585	-6.023407	12.611694	0.220116	22.604852	5.313145	0.000000	-6.435955	-9.777162	11.076028	2.682482	0.046818	26.974213	-11.920133	0.000000	-0.494029	1.389249	3.093019	-0.917461	1.847701	3.286333	-0.811640	3.377820	3.286333	-0.564625	3.377820	2.706392	-0.458755	2.832957	2.513078	-0.282288	2.151947	2.319765	-3.528797	15.715464	17.202446	0.000000	0.000000	5.696415	19.496722	-44.119982	35.099909	-19.561674	50.016684	143.272048	82.941867	1.877737	26.847634	53.703180	61.097222	239.675953	0.045703	0.743720	-69.919254	-24.610753
1.966102	12.279357	5.706033	94.023933	0.228115	0.483693	0.920563	-1.815572	9.932638	-5.979334	12.665326	0.221052	22.578545	5.219092	0.000000	-6.381900	-9.806490	10.692727	2.574820	0.044939	27.062301	-11.520542	0.000000	-0.477852	1.406609	3.147325	-0.887418	1.870790	3.344033	-0.785063	3.420029	3.344033	-0.546137	3.420029	2.753909	-0.443733	2.868357	2.557202	-0.273044	2.178837	2.360494	-3.413247	15.911843	17.504478	0.000000	0.000000	5.864771	19.492512	-44.462150	33.029768	-18.849047	47.667447	144.138746	88.980624	2.981023	26.466354	53.545910	61.513729	240.615387	0.045034	0.751749	-69.921023	-24.617587
1.983051	12.296207	5.651260	94.057861	0.227940	0.484084	0.920022	-1.727629	9.955207	-5.889783	12.684749	0.221391	22.462043	5.004340	0.000000	-6.360319	-9.819292	10.339156	2.472198	0.043148	27.100791	-11.117614	0.000000	-0.465150	1.421888	3.191277	-0.863831	1.891111	3.390732	-0.764195	3.457179	3.390732	-0.531620	3.457179	2.792368	-0.431939	2.899514	2.592913	-0.265787	2.202505	2.393458	-3.322522	16.084682	17.748927	0.000000	0.000000	5.871154	19.509631	-44.656942	31.248144	-18.301182	45.899355	144.434522	93.096284	4.306874	26.149047	53.349471	61.699808	241.798971	0.044546	0.765674	-69.922252	-24.624746
2.000000	12.285515	5.614258	94.169149	0.227895	0.484598	0.919548	-1.671392	9.969255	-5.840250	12.684818	0.221392	22.268850	4.711371	0.000000	-6.332738	-9.827160	10.031956	2.389931	0.041712	27.109692	-10.643446	0.000000	-0.453134	1.436214	3.215601	-0.841515	1.910165	3.416576	-0.744454	3.492011	3.416576	-0.517887	3.492011	2.813651	-0.420780	2.928728	2.612676	-0.258921	2.224696	2.411701	-3.236690	16.246740	17.884209	0.000000	0.000000	5.670381	19.517712	-44.692036	29.817221	-17.967012	44.857739	144.188136	95.418448	5.269784	25.736502	53.099149	61.666283	243.184055	0.044228	0.773682	-69.922987	-24.630619
2.016949	12.245893	5.600321	94.354816	0.227913	0.485252	0.919149	-1.654616	9.972108	-5.801650	12.657815	0.220921	22.007225	4.332239	0.000000	-6.305342	-9.823246	9.789182	2.329533	0.040658	27.077833	-10.138423	0.000000	-0.444145	1.450098	3.221846	-0.824821	1.928630	3.423211	-0.729685	3.525768	3.423211	-0.507613	3.525768	2.819115	-0.412433	2.957040	2.617750	-0.253784	2.246202	2.416384	-3.172480	16.403798	17.918939	0.000000	0.000000	5.277872	19.482921	-44.593532	28.764809	-17.843949	44.556197	143.412787	95.384739	5.775266	25.337623	52.770128	61.431343	244.625985	0.044070	0.778956	-69.923258	-24.635315
